<svg width="814" height="719" viewBox="0 0 814 719" fill="none" xmlns="http://www.w3.org/2000/svg">
<path d="M655.615 497.093C664.926 497.254 674.237 496.828 683.494 495.819C709.614 492.151 734.233 481.423 754.689 464.794C769.354 453.173 781.525 438.721 790.478 422.302C795.601 413.055 799.565 403.212 802.28 392.997C804.935 381.963 806.22 370.645 806.107 359.297C805.81 347.188 804.01 335.162 800.749 323.494C797.164 311.18 792.087 299.35 785.629 288.265C771.573 264.288 750.579 245.122 725.407 233.287L724.067 232.65V231.121C724.922 211.133 719.697 191.355 709.079 174.39C698.461 157.425 682.948 144.068 664.582 136.077C646.216 128.086 625.857 125.835 606.185 129.621C586.513 133.406 568.45 143.051 554.373 157.286L551.055 160.662L550.099 156.075C537.978 98.1668 492.683 44.9724 432.397 21.5924C417.151 15.4742 401.139 11.4662 384.806 9.6794C380.799 9.03261 376.743 8.7342 372.685 8.78752C368.602 8.78752 364.583 8.46899 360.564 8.78752C352.556 9.09795 344.582 9.9922 336.704 11.4632C305.745 17.3581 276.868 31.2382 252.942 51.7252C230.094 71.1804 211.801 95.4065 199.354 122.694C187.826 148.414 182.474 176.468 183.724 204.619V207.741L180.662 206.976C149.556 199.79 116.919 203.571 88.287 217.679C75.0428 224.27 62.7299 232.581 51.6688 242.397C41.4411 252.055 32.5387 263.023 25.1938 275.014C18.6214 286.357 13.7225 298.587 10.6486 311.327C8.01742 323.283 7.1577 335.56 8.09684 347.766C9.67074 369.433 16.2194 390.447 27.2353 409.179C42.3786 435.941 65.5044 457.32 93.3906 470.336C103.418 474.605 113.79 478.015 124.395 480.529C123.694 480.585 122.99 480.585 122.29 480.529L115.91 479.319C112.505 478.788 109.153 477.957 105.894 476.834C101.337 475.525 96.8805 473.885 92.5613 471.929C63.9799 459.248 40.1678 437.834 24.5559 410.771C13.1554 391.75 6.28026 370.369 4.46048 348.276C3.39118 335.742 4.18668 323.118 6.82096 310.817C9.91718 297.662 14.9022 285.024 21.6213 273.294C29.0944 261.04 38.1693 249.836 48.6066 239.976C59.9264 229.862 72.5404 221.293 86.118 214.494C115.688 199.611 149.535 195.51 181.81 202.899L178.94 205.256C177.616 176.353 183.054 147.539 194.825 121.101C207.484 93.0855 226.173 68.2017 249.561 48.2214C274.137 27.1556 303.806 12.8797 335.62 6.81255C343.752 5.30259 351.981 4.366 360.245 4.00958C364.391 4.00958 368.602 4.00958 373.004 4.00958C377.275 3.94114 381.543 4.23953 385.763 4.90146C402.551 6.75684 419.01 10.8713 434.693 17.133C496.383 41.1501 543.145 95.6185 555.457 155.438L551.183 154.164C565.915 139.265 584.818 129.168 605.406 125.201C625.994 121.234 647.302 123.582 666.528 131.937C685.754 140.292 701.997 154.263 713.121 172.012C724.245 189.76 729.729 210.456 728.852 231.376L727.576 229.21C753.479 241.539 775.032 261.418 789.393 286.226C795.981 297.637 801.145 309.81 804.768 322.475C808.046 334.461 809.803 346.81 809.999 359.233C810.043 370.89 808.65 382.508 805.852 393.826C802.978 404.288 798.844 414.363 793.54 423.831C784.242 440.477 771.68 455.081 756.603 466.769C735.683 483.449 710.52 493.973 683.94 497.157C677.023 498.036 670.035 498.229 663.079 497.73C658.039 497.411 655.615 497.093 655.615 497.093Z" fill="#E8505B" stroke="#E8505B" stroke-width="7"/>
<path d="M394.931 403.009C396.197 403.775 379.926 433.21 358.716 468.839C337.506 504.467 319.335 532.69 318.069 531.987C316.803 531.285 333.074 501.786 354.347 466.157C375.62 430.528 393.728 402.434 394.931 403.009Z" fill="#E8505B" stroke="#E8505B" stroke-width="7"/>
<path d="M515.937 403.009C517.14 403.775 500.93 433.21 479.716 468.839C458.503 504.467 440.266 532.69 439.063 531.987C437.86 531.285 454.07 501.786 475.284 466.157C496.497 430.528 514.734 402.434 515.937 403.009Z" fill="#E8505B" stroke="#E8505B" stroke-width="7"/>
<path d="M637.936 403.009C639.155 403.775 622.734 433.21 601.181 468.839C579.628 504.467 561.282 532.69 560.064 531.987C558.845 531.285 575.266 501.786 596.755 466.157C618.244 430.528 636.653 402.434 637.936 403.009Z" fill="#E8505B" stroke="#E8505B" stroke-width="7"/>
<path d="M254.936 584.015C256.155 584.712 239.734 613.996 218.245 649.301C196.756 684.606 178.282 712.685 177.064 711.987C175.845 711.29 192.266 682.007 213.755 646.702C235.244 611.397 253.718 583.254 254.936 584.015Z" fill="#E8505B" stroke="#E8505B" stroke-width="7"/>
<path d="M375.931 584.015C377.198 584.712 360.975 613.996 339.683 649.301C318.391 684.606 300.267 712.685 299.063 711.987C297.859 711.29 314.018 682.007 335.311 646.702C356.603 611.397 374.726 583.254 375.931 584.015Z" fill="#E8505B" stroke="#E8505B" stroke-width="7"/>
<path d="M496.937 584.015C498.14 584.712 481.93 613.996 460.716 649.301C439.503 684.606 421.266 712.685 420.063 711.987C418.86 711.29 435.07 682.007 456.284 646.702C477.497 611.397 495.734 583.254 496.937 584.015Z" fill="#E8505B" stroke="#E8505B" stroke-width="7"/>
<path d="M623.936 586.013C625.155 586.779 608.734 616.228 587.245 651.872C565.756 687.517 547.282 715.751 546.064 714.985C544.845 714.218 561.266 684.77 582.755 649.189C604.244 613.608 622.718 585.31 623.936 586.013Z" fill="#E8505B" stroke="#E8505B" stroke-width="7"/>
</svg>
